<?xml version="1.0" standalone="no"?>
<!DOCTYPE svg PUBLIC "-//W3C//DTD SVG 20010904//EN"
 "http://www.w3.org/TR/2001/REC-SVG-20010904/DTD/svg10.dtd">
<svg version="1.0" xmlns="http://www.w3.org/2000/svg"
 width="1562.000000pt" height="1562.000000pt" viewBox="0 0 1562.000000 1562.000000"
 preserveAspectRatio="xMidYMid meet">

<g transform="translate(0.000000,1562.000000) scale(0.100000,-0.100000)"
fill="#000000" stroke="none">
<path d="M9455 12010 c-27 -5 -113 -15 -189 -22 -134 -12 -141 -13 -197 -49
-96 -63 -179 -190 -234 -359 -37 -113 -38 -119 -51 -375 -7 -143 -20 -341 -29
-440 -8 -99 -28 -371 -45 -604 -17 -233 -37 -512 -45 -620 -22 -295 -43 -693
-55 -1006 -5 -154 -17 -401 -25 -550 -13 -234 -62 -1173 -110 -2115 -8 -157
-19 -404 -25 -550 -11 -294 -17 -386 -30 -445 -5 -22 -13 -123 -20 -225 -6
-102 -22 -309 -35 -460 -13 -151 -26 -311 -29 -355 -3 -44 -13 -180 -22 -302
l-17 -222 28 -88 c46 -151 76 -202 151 -263 96 -78 206 -148 329 -210 l107
-54 142 0 c122 -1 159 3 279 30 l139 31 157 106 157 106 51 118 c63 144 92
253 132 495 36 221 44 285 70 608 32 388 51 692 61 1005 14 411 26 598 55 850
13 121 31 292 40 379 9 88 21 166 28 174 10 13 79 14 502 6 269 -4 618 -8 775
-8 l285 0 95 36 c52 20 138 46 190 58 327 76 346 82 430 127 47 25 110 63 140
84 607 426 595 415 829 774 47 73 104 166 126 207 48 89 161 425 216 643 22
88 55 198 74 245 18 47 35 110 38 140 4 30 20 133 37 229 51 297 41 501 -50
936 -46 221 -112 404 -245 682 -139 290 -336 506 -610 668 -287 170 -332 195
-415 234 -127 59 -188 77 -401 116 -107 20 -221 45 -254 55 -149 48 -383 80
-744 100 -91 5 -229 16 -306 25 -77 8 -188 15 -246 15 -59 0 -130 4 -159 10
-123 23 -976 47 -1075 30z m-1 -654 c48 -20 84 -86 90 -161 2 -33 5 -62 7 -65
1 -3 2 -14 3 -25 1 -26 36 -33 37 -8 1 13 3 11 9 -7 4 -14 8 -19 9 -12 1 9 8
11 21 7 11 -3 20 -3 20 2 0 5 18 8 40 8 22 0 40 -3 40 -7 0 -5 -4 -8 -10 -8
-5 0 -10 -4 -10 -10 0 -5 7 -10 15 -10 8 0 15 5 15 10 0 20 28 9 34 -12 9 -36
7 -86 -5 -93 -6 -4 -7 -14 -3 -24 4 -9 6 -49 5 -88 -2 -61 0 -73 13 -73 12 0
16 -9 15 -32 -1 -18 1 -42 3 -53 3 -11 3 -14 1 -7 -3 6 -9 12 -14 12 -13 0
-14 -48 -2 -196 6 -82 -9 -133 -21 -69 -10 52 -21 35 -23 -38 -7 -189 -12
-247 -23 -267 -15 -29 -40 -125 -40 -156 0 -36 -17 -64 -35 -58 -11 5 -15 -1
-15 -23 0 -16 -6 -35 -12 -41 -7 -7 -15 -43 -18 -80 -4 -60 -7 -67 -27 -70
-13 -2 -23 -7 -23 -12 0 -4 -19 -8 -43 -7 -24 0 -49 -3 -55 -7 -7 -4 -12 -1
-12 8 0 9 -5 16 -10 16 -6 0 -8 10 -4 24 7 30 -9 41 -30 20 -10 -9 -16 -33
-16 -59 0 -24 -4 -45 -9 -47 -5 -1 -12 -32 -15 -68 -8 -83 -11 -103 -18 -115
-25 -41 -39 -139 -49 -339 -12 -252 -19 -300 -53 -355 -31 -48 -87 -64 -130
-36 -108 71 -133 230 -111 700 57 1178 88 1467 186 1724 34 90 99 172 164 205
37 20 66 20 109 2z m1617 -591 c324 -22 505 -56 717 -134 216 -80 274 -128
398 -327 144 -230 199 -344 214 -442 64 -415 80 -650 55 -847 -27 -223 -73
-349 -171 -466 -106 -127 -139 -162 -190 -201 -93 -70 -486 -215 -659 -244
-88 -14 -161 -15 -600 -9 -275 4 -547 10 -605 14 l-105 6 2 40 c1 22 18 207
37 410 49 512 53 556 76 845 50 633 69 969 70 1202 l0 116 93 17 c214 38 341
42 668 20z m1925 -499 c16 0 20 -5 17 -21 -3 -12 4 -28 16 -39 12 -11 21 -25
21 -31 0 -7 7 -15 15 -19 8 -3 15 -16 15 -30 0 -14 5 -28 11 -32 6 -3 8 -15 6
-26 -3 -10 7 -49 22 -86 15 -37 35 -103 45 -147 9 -44 21 -98 26 -120 32 -139
37 -465 10 -610 -5 -27 -12 -70 -16 -95 -3 -25 -14 -63 -24 -85 -10 -22 -21
-60 -25 -85 -8 -48 -38 -116 -54 -122 -6 -1 -14 -28 -18 -58 -5 -31 -14 -56
-21 -56 -6 -1 -21 -2 -31 -3 -11 0 -28 -14 -38 -31 -9 -16 -21 -30 -25 -30
-13 0 -9 40 5 41 6 0 2 5 -10 11 -13 6 -23 16 -23 22 0 14 -42 99 -53 107 -4
3 -3 26 4 50 6 24 12 76 14 115 1 39 7 86 14 105 6 19 10 48 9 64 -1 17 4 71
11 120 26 189 34 629 17 883 -6 78 -5 122 1 122 5 0 9 26 7 58 -2 64 17 106
26 56 4 -21 11 -29 26 -28z m-3456 -716 c0 -5 -9 -10 -20 -10 -11 0 -20 5 -20
10 0 6 9 10 20 10 11 0 20 -4 20 -10z m-288 -1066 c65 -33 106 -134 88 -219
-20 -95 -80 -158 -165 -171 -150 -22 -221 206 -110 352 47 62 113 75 187 38z
m3635 -350 c11 -17 18 -51 19 -102 3 -65 8 -83 35 -126 54 -87 49 -167 -15
-243 -30 -36 -305 -264 -411 -340 -154 -111 -323 -191 -440 -207 -52 -7 -113
7 -130 31 -23 29 -18 86 10 127 36 53 68 79 175 137 252 140 345 211 439 338
40 54 93 150 106 191 1 3 4 12 7 20 4 8 9 24 14 35 4 11 7 23 6 27 -1 3 5 12
13 18 8 7 15 20 15 29 0 9 8 24 18 32 9 9 25 26 34 38 26 31 82 29 105 -5z
m-3981 -2686 c24 -16 34 -33 39 -63 4 -22 10 -47 12 -55 3 -8 9 -51 14 -95 16
-127 6 -275 -50 -800 -11 -103 -22 -183 -50 -375 -10 -74 -27 -193 -36 -265
-34 -264 -56 -344 -107 -379 -33 -23 -60 -20 -95 12 -60 53 -68 91 -65 332 3
274 16 489 46 765 14 121 30 272 36 335 21 226 31 297 61 420 25 105 35 130
61 157 39 40 86 44 134 11z"/>
<path d="M9751 10844 c0 -11 3 -14 6 -6 3 7 2 16 -1 19 -3 4 -6 -2 -5 -13z"/>
<path d="M9760 10729 c0 -5 5 -7 10 -4 6 3 10 8 10 11 0 2 -4 4 -10 4 -5 0
-10 -5 -10 -11z"/>
<path d="M9751 10514 c0 -11 3 -14 6 -6 3 7 2 16 -1 19 -3 4 -6 -2 -5 -13z"/>
<path d="M9420 9844 c0 -8 5 -12 10 -9 6 3 10 10 10 16 0 5 -4 9 -10 9 -5 0
-10 -7 -10 -16z"/>
<path d="M9486 9761 c-4 -7 -5 -15 -2 -18 9 -9 19 4 14 18 -4 11 -6 11 -12 0z"/>
<path d="M6809 11636 c-48 -22 -138 -73 -200 -115 -131 -89 -104 -31 -216
-461 -76 -294 -84 -337 -103 -550 -6 -69 -40 -314 -75 -545 -36 -231 -71 -491
-80 -577 -8 -86 -19 -178 -25 -205 -38 -165 -96 -541 -120 -779 -23 -220 -53
-405 -105 -654 -20 -96 -52 -260 -71 -365 -19 -104 -45 -246 -59 -315 -34
-177 -62 -382 -75 -545 -10 -133 -40 -338 -60 -415 -5 -20 -15 -71 -20 -115
-19 -139 -89 -394 -142 -520 -111 -266 -194 -408 -333 -574 -106 -126 -170
-181 -270 -232 -81 -40 -95 -44 -175 -47 -102 -4 -169 11 -270 63 -36 19 -86
41 -112 50 -67 23 -145 97 -179 170 -16 33 -29 65 -29 70 0 6 -30 51 -65 100
-140 193 -273 514 -360 870 -186 760 -258 1134 -340 1760 -24 180 -82 980
-105 1440 -15 306 -39 681 -47 750 -4 33 -7 305 -8 605 l0 545 -28 104 c-20
76 -45 137 -90 220 l-64 116 -94 42 c-157 69 -233 91 -371 103 -183 18 -308
10 -384 -23 -154 -66 -273 -158 -397 -306 -73 -87 -77 -94 -121 -230 l-46
-140 0 -933 c0 -1624 40 -2329 206 -3663 39 -315 49 -360 180 -765 130 -400
264 -765 443 -1202 123 -302 174 -393 380 -688 173 -248 247 -336 361 -427
257 -206 653 -440 850 -501 36 -11 127 -30 203 -42 136 -22 141 -22 250 -6
459 70 1006 191 1126 249 175 86 295 158 391 235 58 46 159 120 225 164 99 66
136 98 213 187 52 58 105 130 119 160 15 30 46 88 70 129 161 272 197 376 387
1122 111 435 133 536 206 950 33 190 63 352 65 360 4 15 112 626 191 1080 49
285 150 907 188 1160 29 192 52 407 61 570 13 245 27 401 50 561 33 228 53
433 60 624 3 88 15 300 26 471 l20 312 -21 118 c-32 175 -87 292 -195 415 -93
104 -66 98 -419 101 l-309 3 -88 -39z m-4469 -660 c42 -22 140 -121 140 -140
0 -8 5 -16 10 -18 6 -2 12 -17 14 -35 3 -17 10 -41 16 -54 7 -12 19 -67 27
-123 8 -56 16 -112 18 -126 8 -46 9 -276 1 -288 -4 -7 -2 -12 5 -12 8 0 10
-19 4 -72 -4 -40 -8 -104 -11 -143 -8 -157 -13 -204 -24 -244 -6 -23 -11 -66
-11 -94 -1 -29 -7 -78 -14 -109 -7 -31 -10 -60 -6 -63 3 -4 7 -77 7 -163 2
-212 15 -385 28 -394 7 -5 6 -8 -3 -8 -11 0 -11 -3 0 -16 10 -13 10 -17 -2
-25 -9 -6 -10 -12 -4 -16 6 -5 11 -33 11 -63 1 -30 7 -121 13 -202 21 -275 10
-453 -29 -466 -5 -2 -10 -11 -10 -20 0 -9 -7 -26 -15 -36 -8 -10 -12 -23 -8
-29 3 -5 -11 -25 -32 -44 -34 -31 -36 -35 -20 -47 27 -19 0 -31 -36 -16 -16 7
-32 10 -35 7 -3 -3 1 -29 10 -59 56 -190 59 -203 62 -348 9 -337 5 -378 -44
-427 -30 -31 -39 -34 -71 -30 -57 9 -90 57 -159 234 -34 87 -69 183 -78 213
-19 64 -22 220 -5 295 15 63 102 191 122 179 5 -3 6 1 3 9 -3 8 -1 18 4 21 15
9 3 44 -17 51 -37 12 -92 75 -132 150 -78 147 -119 235 -119 255 0 7 -7 24
-15 38 -18 33 -54 134 -65 182 -4 19 -15 62 -24 95 -51 185 -71 534 -63 1100
6 430 16 575 51 730 25 113 32 130 79 203 50 78 100 124 178 164 48 24 63 27
134 25 54 -2 91 -9 115 -21z m117 -3112 c-3 -3 -12 -4 -19 -1 -8 3 -5 6 6 6
11 1 17 -2 13 -5z m3896 -2703 c34 -13 60 -74 55 -125 -12 -97 -68 -161 -143
-161 -78 0 -121 69 -95 152 18 58 54 108 91 126 39 19 58 21 92 8z m-216 -601
c38 -22 58 -82 50 -144 -6 -44 -59 -154 -139 -291 -39 -66 -86 -124 -178 -218
-196 -202 -273 -251 -360 -227 -106 29 -162 143 -110 227 11 19 61 60 120 99
127 83 257 212 328 325 29 46 71 112 92 146 59 94 130 124 197 83z"/>
</g>
</svg>
